<svg width="14" height="14" viewBox="0 0 14 14" fill="none" xmlns="http://www.w3.org/2000/svg">
<path d="M3.11301 11.0003C3.25074 10.61 3.50617 10.272 3.84407 10.0329C4.18198 9.79376 4.58573 9.66537 4.99967 9.66537C5.41362 9.66537 5.81737 9.79376 6.15527 10.0329C6.49318 10.272 6.74861 10.61 6.88634 11.0003H13.6663V12.3337H6.88634C6.74861 12.724 6.49318 13.062 6.15527 13.3011C5.81737 13.5402 5.41362 13.6686 4.99967 13.6686C4.58573 13.6686 4.18198 13.5402 3.84407 13.3011C3.50617 13.062 3.25074 12.724 3.11301 12.3337H0.333008V11.0003H3.11301ZM7.11301 6.33367C7.25074 5.94331 7.50617 5.60529 7.84407 5.36619C8.18198 5.12709 8.58573 4.9987 8.99967 4.9987C9.41362 4.9987 9.81737 5.12709 10.1553 5.36619C10.4932 5.60529 10.7486 5.94331 10.8863 6.33367H13.6663V7.667H10.8863C10.7486 8.05735 10.4932 8.39538 10.1553 8.63447C9.81737 8.87357 9.41362 9.00197 8.99967 9.00197C8.58573 9.00197 8.18198 8.87357 7.84407 8.63447C7.50617 8.39538 7.25074 8.05735 7.11301 7.667H0.333008V6.33367H7.11301ZM3.11301 1.667C3.25074 1.27664 3.50617 0.938621 3.84407 0.699525C4.18198 0.460429 4.58573 0.332031 4.99967 0.332031C5.41362 0.332031 5.81737 0.460429 6.15527 0.699525C6.49318 0.938621 6.74861 1.27664 6.88634 1.667H13.6663V3.00033H6.88634C6.74861 3.39069 6.49318 3.72871 6.15527 3.96781C5.81737 4.2069 5.41362 4.3353 4.99967 4.3353C4.58573 4.3353 4.18198 4.2069 3.84407 3.96781C3.50617 3.72871 3.25074 3.39069 3.11301 3.00033H0.333008V1.667H3.11301ZM4.99967 3.00033C5.17649 3.00033 5.34605 2.93009 5.47108 2.80507C5.5961 2.68005 5.66634 2.51048 5.66634 2.33366C5.66634 2.15685 5.5961 1.98728 5.47108 1.86226C5.34605 1.73724 5.17649 1.667 4.99967 1.667C4.82286 1.667 4.65329 1.73724 4.52827 1.86226C4.40325 1.98728 4.33301 2.15685 4.33301 2.33366C4.33301 2.51048 4.40325 2.68005 4.52827 2.80507C4.65329 2.93009 4.82286 3.00033 4.99967 3.00033ZM8.99967 7.667C9.17649 7.667 9.34606 7.59676 9.47108 7.47174C9.5961 7.34671 9.66634 7.17714 9.66634 7.00033C9.66634 6.82352 9.5961 6.65395 9.47108 6.52893C9.34606 6.4039 9.17649 6.33367 8.99967 6.33367C8.82286 6.33367 8.65329 6.4039 8.52827 6.52893C8.40325 6.65395 8.33301 6.82352 8.33301 7.00033C8.33301 7.17714 8.40325 7.34671 8.52827 7.47174C8.65329 7.59676 8.82286 7.667 8.99967 7.667ZM4.99967 12.3337C5.17649 12.3337 5.34605 12.2634 5.47108 12.1384C5.5961 12.0134 5.66634 11.8438 5.66634 11.667C5.66634 11.4902 5.5961 11.3206 5.47108 11.1956C5.34605 11.0706 5.17649 11.0003 4.99967 11.0003C4.82286 11.0003 4.65329 11.0706 4.52827 11.1956C4.40325 11.3206 4.33301 11.4902 4.33301 11.667C4.33301 11.8438 4.40325 12.0134 4.52827 12.1384C4.65329 12.2634 4.82286 12.3337 4.99967 12.3337Z" fill="#6D7A98"/>
</svg>
